<?xml version="1.0" encoding="UTF-8"?>
<svg width="175" height="175" version="1.1" viewBox="0 0 175 175" xmlns="http://www.w3.org/2000/svg">
 <path d="m83.102 5.5844c-7.397 18.134-11.858 29.997-20.093 47.593 5.049 5.352 11.246 11.584 21.311 18.624-10.82-4.453-18.2-8.924-23.717-13.562-10.539 21.992-27.052 53.32-60.561 113.53 26.338-15.2 46.753-24.58 65.78-28.15-0.817-3.52-1.281-7.32-1.25-11.28l0.031-0.85c0.418-16.87 9.195-29.845 19.593-28.964s18.478 15.284 18.058 32.154c-0.07 3.18-0.43 6.23-1.06 9.06 18.82 3.68 39.02 13.03 65 28.03-5.12-9.43-9.7-17.93-14.06-26.03-6.88-5.33-14.05-12.27-28.69-19.78 10.06 2.62 17.26 5.63 22.88 9-44.4-82.668-47.993-93.651-63.223-129.37l1e-3 -0.00519zm83.92 151.36v-4.55h-1.7v-0.61h4.09v0.61h-1.71v4.55zm3.1 0v-5.16h1.03l1.22 3.66c0.12 0.34 0.2 0.59 0.25 0.76 0.06-0.19 0.15-0.46 0.28-0.83l1.23-3.59h0.92v5.16h-0.66v-4.32l-1.5 4.32h-0.61l-1.5-4.39v4.39z" fill="#1793d1"/>
</svg>
