<svg xmlns:dc="http://purl.org/dc/elements/1.1/" xmlns:cc="http://creativecommons.org/ns#" xmlns:rdf="http://www.w3.org/1999/02/22-rdf-syntax-ns#" xmlns:svg="http://www.w3.org/2000/svg" xmlns="http://www.w3.org/2000/svg" xmlns:xlink="http://www.w3.org/1999/xlink" width="128" height="128" id="svg2" version="1.1"><defs id="defs4"><linearGradient id="linearGradient6915"><stop id="stop6917" offset="0" stop-color="#600000" stop-opacity="1"/><stop id="stop6919" offset="1" stop-color="#700000" stop-opacity="1"/></linearGradient><linearGradient id="linearGradient6898"><stop offset="0" id="stop6900" stop-color="#90000f" stop-opacity="0.94117647"/><stop offset="1" id="stop6902" stop-color="#800000" stop-opacity="1"/></linearGradient><linearGradient id="linearGradient3770"><stop offset="0" id="stop3772" stop-color="#000000" stop-opacity="1"/><stop offset="1" id="stop3774" stop-color="#000000" stop-opacity="0"/></linearGradient><radialGradient xlink:href="#linearGradient3770" id="radialGradient3776" cx="82.145" cy="81.055" fx="82.145" fy="81.055" r="22.573" gradientTransform="matrix(1,0,0,1.2584318,0,-20.947238)" gradientUnits="userSpaceOnUse"/></defs><metadata id="metadata7"><rdf:RDF><cc:Work><dc:format>image/svg+xml</dc:format><dc:type rdf:resource="http://purl.org/dc/dcmitype/StillImage"/><dc:title/><dc:description>Use gray 50% for the &quot;off&quot; color</dc:description><cc:license rdf:resource="http://creativecommons.org/licenses/by-nc/3.0/"/></cc:Work><cc:License rdf:about="http://creativecommons.org/licenses/by-nc/3.0/"><cc:permits rdf:resource="http://creativecommons.org/ns#Reproduction"/><cc:permits rdf:resource="http://creativecommons.org/ns#Distribution"/><cc:requires rdf:resource="http://creativecommons.org/ns#Notice"/><cc:requires rdf:resource="http://creativecommons.org/ns#Attribution"/><cc:prohibits rdf:resource="http://creativecommons.org/ns#CommercialUse"/><cc:permits rdf:resource="http://creativecommons.org/ns#DerivativeWorks"/></cc:License></rdf:RDF></metadata><g id="layer3" display="inline" opacity="1"><g transform="matrix(-0.6945203,0,0,0.56109687,375.02964,-247.42947)" id="g6907" fill="#800000" fill-opacity="1" stroke="#ffffff" stroke-width="1.60191178000000001" stroke-linecap="round" stroke-miterlimit="4" stroke-opacity="1" stroke-dasharray="none" display="inline" stroke-linejoin="round"><path d="m 447.83376,669.09921 c -80.63119,-57.03115 -80.63119,-57.03115 -80.63119,-199.60903 34.55623,0 46.07497,0 80.63119,-28.51558 m 0,228.12461 c 80.6312,-57.03115 80.6312,-57.03115 80.6312,-199.60903 -34.55623,0 -46.07497,0 -80.6312,-28.51558" id="path6909" fill="#800000" fill-opacity="1" fill-rule="nonzero" stroke="#ffffff" stroke-width="1.60191178" stroke-linecap="round" stroke-linejoin="round" stroke-miterlimit="4" stroke-opacity="1" stroke-dasharray="none"/></g></g><g id="layer5" transform="translate(-17.872548,-17.32535)" display="inline"><ellipse style="text-align:center;line-height:125%;-inkscape-font-specification:Ubuntu" cx="102.123" cy="81.325" rx="12" ry="12" d="m 114.12254,81.325356 c 0,6.627417 -5.37258,12 -12,12 -6.627413,0 -11.999996,-5.372583 -11.999996,-12 0,-6.627417 5.372583,-12 11.999996,-12 6.62742,0 12,5.372583 12,12 z" transform="matrix(1.3333335,0,0,1.3333334,-42.290862,-31.108461)" id="path2996-3" font-size="100.21945953px" font-style="normal" font-variant="normal" font-weight="normal" font-stretch="normal" letter-spacing="0px" word-spacing="0px" text-anchor="middle" fill="none" stroke="#ffffff" stroke-width="5.99999952" stroke-miterlimit="4" stroke-opacity="1" stroke-dasharray="none" display="inline" font-family="Ubuntu"/><g transform="scale(1.0018026,0.99820067)" style="line-height:125%" id="text3778" font-size="73.20139312999999959px" font-style="normal" font-weight="normal" letter-spacing="0px" word-spacing="0px" fill="#ffffff" fill-opacity="1" stroke="#ffffff" stroke-width="1.99999996999999996" stroke-miterlimit="4" stroke-opacity="1" font-family="Sans" stroke-dasharray="none"><path style="-inkscape-font-specification:Ubuntu" d="m 81.72523,81.471945 c 0,11.019828 -4.991003,16.028841 -15.97121,16.028841 -10.980207,0 -15.97121,-5.009013 -15.97121,-16.028841 l 0,-24.043262 7.985605,0 0,24.043262 c 0,7.012618 0.9982,8.014421 7.985605,8.014421 6.987404,0 7.985605,-1.001803 7.985605,-8.014421 l 0,-24.043262 7.985605,0 z" id="path3783" font-variant="normal" font-stretch="normal" fill="#ffffff" stroke="#ffffff" stroke-width="0" stroke-linecap="square" stroke-linejoin="miter" stroke-miterlimit="4" stroke-dasharray="none" font-family="Ubuntu"/></g></g></svg>